<mxfile host="app.diagrams.net" modified="2023-07-25T12:05:00.294Z" agent="Mozilla/5.0 (Windows NT 10.0; Win64; x64) AppleWebKit/537.36 (KHTML, like Gecko) Chrome/115.0.0.0 Safari/537.36" etag="JRqKwvzByRpbKAHqNCL3" version="21.6.5" type="device">
  <diagram name="Página-1" id="32gP1rwj8Ow81AT_pFUl">
    <mxGraphModel dx="903" dy="864" grid="1" gridSize="10" guides="1" tooltips="1" connect="1" arrows="1" fold="1" page="1" pageScale="1" pageWidth="827" pageHeight="1169" math="0" shadow="0">
      <root>
        <mxCell id="0" />
        <mxCell id="1" parent="0" />
        <mxCell id="RTwn7rUxL_76YXAE0_zD-1" value="&lt;div&gt;&lt;b&gt;Construa o Modelo Entidade Relacionamento considerando o seguinte cenário:&lt;/b&gt;&lt;/div&gt;&lt;div&gt;&lt;b&gt;&lt;br&gt;&lt;/b&gt;&lt;/div&gt;&lt;div&gt;&lt;b&gt;- uma empresa possui vários veículos&lt;/b&gt;&lt;/div&gt;&lt;div&gt;&lt;b&gt;- um veículo possui marca(gm, ford, fiat), modelo(onix, fiesta, argo) e placa&lt;/b&gt;&lt;/div&gt;&lt;div&gt;&lt;b&gt;- um cliente (cpf, nome) aluga um ou mais veículos&lt;/b&gt;&lt;/div&gt;&lt;div&gt;&lt;b&gt;&lt;br&gt;&lt;/b&gt;&lt;/div&gt;&lt;div&gt;&lt;b&gt;DML&lt;/b&gt;&lt;/div&gt;&lt;div&gt;&lt;b&gt;&lt;br&gt;&lt;/b&gt;&lt;/div&gt;&lt;div&gt;&lt;b&gt;- um registro de aluguel deve conter qual cliente alugou, o veículo alugado, data de retirada e data de devolução&lt;/b&gt;&lt;/div&gt;&lt;div&gt;&lt;b&gt;&lt;br&gt;&lt;/b&gt;&lt;/div&gt;&lt;div&gt;&lt;b&gt;&lt;br&gt;&lt;/b&gt;&lt;/div&gt;&lt;div&gt;&lt;b&gt;DQL&lt;/b&gt;&lt;/div&gt;&lt;div&gt;&lt;b&gt;&lt;br&gt;&lt;/b&gt;&lt;/div&gt;&lt;div&gt;&lt;b&gt;- listar todos os alugueis mostrando as datas de início e fim, o nome do cliente que alugou e nome do modelo do carro&lt;/b&gt;&lt;/div&gt;&lt;div&gt;&lt;b&gt;- listar os alugueis de um determinado cliente mostrando seu nome, as datas de início e fim e o nome do modelo do carro&lt;/b&gt;&lt;/div&gt;" style="text;html=1;align=center;verticalAlign=middle;resizable=0;points=[];autosize=1;strokeColor=none;fillColor=none;" parent="1" vertex="1">
          <mxGeometry x="53" y="400" width="720" height="230" as="geometry" />
        </mxCell>
        <mxCell id="RTwn7rUxL_76YXAE0_zD-7" value="" style="group" parent="1" vertex="1" connectable="0">
          <mxGeometry x="9" y="800" width="120" height="60" as="geometry" />
        </mxCell>
        <mxCell id="RTwn7rUxL_76YXAE0_zD-19" style="edgeStyle=orthogonalEdgeStyle;rounded=0;orthogonalLoop=1;jettySize=auto;html=1;exitX=1;exitY=0.5;exitDx=0;exitDy=0;endArrow=none;endFill=0;" parent="RTwn7rUxL_76YXAE0_zD-7" source="RTwn7rUxL_76YXAE0_zD-2" edge="1">
          <mxGeometry relative="1" as="geometry">
            <mxPoint x="200" y="30.352941176470722" as="targetPoint" />
          </mxGeometry>
        </mxCell>
        <mxCell id="RTwn7rUxL_76YXAE0_zD-2" value="" style="rounded=0;whiteSpace=wrap;html=1;" parent="RTwn7rUxL_76YXAE0_zD-7" vertex="1">
          <mxGeometry width="120" height="60" as="geometry" />
        </mxCell>
        <mxCell id="RTwn7rUxL_76YXAE0_zD-3" value="locadora" style="text;html=1;align=center;verticalAlign=middle;resizable=0;points=[];autosize=1;strokeColor=none;fillColor=none;" parent="RTwn7rUxL_76YXAE0_zD-7" vertex="1">
          <mxGeometry x="25" y="15" width="70" height="30" as="geometry" />
        </mxCell>
        <mxCell id="RTwn7rUxL_76YXAE0_zD-8" value="" style="group" parent="1" vertex="1" connectable="0">
          <mxGeometry x="209" y="790" width="80" height="80" as="geometry" />
        </mxCell>
        <mxCell id="RTwn7rUxL_76YXAE0_zD-5" value="" style="rhombus;whiteSpace=wrap;html=1;" parent="RTwn7rUxL_76YXAE0_zD-8" vertex="1">
          <mxGeometry width="80" height="80" as="geometry" />
        </mxCell>
        <mxCell id="RTwn7rUxL_76YXAE0_zD-6" value="possui" style="text;html=1;align=center;verticalAlign=middle;resizable=0;points=[];autosize=1;strokeColor=none;fillColor=none;" parent="RTwn7rUxL_76YXAE0_zD-8" vertex="1">
          <mxGeometry x="10" y="25" width="60" height="30" as="geometry" />
        </mxCell>
        <mxCell id="RTwn7rUxL_76YXAE0_zD-11" value="" style="group" parent="1" vertex="1" connectable="0">
          <mxGeometry x="359" y="800" width="120" height="60" as="geometry" />
        </mxCell>
        <mxCell id="RTwn7rUxL_76YXAE0_zD-9" value="" style="rounded=0;whiteSpace=wrap;html=1;" parent="RTwn7rUxL_76YXAE0_zD-11" vertex="1">
          <mxGeometry width="120" height="60" as="geometry" />
        </mxCell>
        <mxCell id="RTwn7rUxL_76YXAE0_zD-10" value="veículo" style="text;html=1;align=center;verticalAlign=middle;resizable=0;points=[];autosize=1;strokeColor=none;fillColor=none;" parent="RTwn7rUxL_76YXAE0_zD-11" vertex="1">
          <mxGeometry x="30" y="15" width="60" height="30" as="geometry" />
        </mxCell>
        <mxCell id="RTwn7rUxL_76YXAE0_zD-14" value="placa" style="ellipse;whiteSpace=wrap;html=1;" parent="1" vertex="1">
          <mxGeometry x="390" y="700" width="80" height="50" as="geometry" />
        </mxCell>
        <mxCell id="RTwn7rUxL_76YXAE0_zD-17" style="edgeStyle=orthogonalEdgeStyle;rounded=0;orthogonalLoop=1;jettySize=auto;html=1;entryX=0.5;entryY=1;entryDx=0;entryDy=0;endArrow=none;endFill=0;" parent="1" edge="1">
          <mxGeometry relative="1" as="geometry">
            <mxPoint x="419" y="800" as="sourcePoint" />
            <Array as="points">
              <mxPoint x="419" y="800" />
              <mxPoint x="431" y="800" />
            </Array>
            <mxPoint x="431" y="750" as="targetPoint" />
          </mxGeometry>
        </mxCell>
        <mxCell id="RTwn7rUxL_76YXAE0_zD-20" style="edgeStyle=orthogonalEdgeStyle;rounded=0;orthogonalLoop=1;jettySize=auto;html=1;entryX=0;entryY=0.5;entryDx=0;entryDy=0;endArrow=none;endFill=0;" parent="1" target="RTwn7rUxL_76YXAE0_zD-9" edge="1">
          <mxGeometry relative="1" as="geometry">
            <mxPoint x="289" y="830" as="sourcePoint" />
          </mxGeometry>
        </mxCell>
        <mxCell id="RTwn7rUxL_76YXAE0_zD-30" style="edgeStyle=orthogonalEdgeStyle;rounded=0;orthogonalLoop=1;jettySize=auto;html=1;exitX=0.5;exitY=0;exitDx=0;exitDy=0;entryX=1;entryY=0.5;entryDx=0;entryDy=0;endArrow=none;endFill=0;" parent="1" source="RTwn7rUxL_76YXAE0_zD-24" target="RTwn7rUxL_76YXAE0_zD-25" edge="1">
          <mxGeometry relative="1" as="geometry">
            <Array as="points">
              <mxPoint x="713" y="710" />
              <mxPoint x="616" y="710" />
              <mxPoint x="616" y="900" />
            </Array>
          </mxGeometry>
        </mxCell>
        <mxCell id="RTwn7rUxL_76YXAE0_zD-24" value="cliente" style="rounded=0;whiteSpace=wrap;html=1;" parent="1" vertex="1">
          <mxGeometry x="653" y="730" width="120" height="60" as="geometry" />
        </mxCell>
        <mxCell id="RTwn7rUxL_76YXAE0_zD-31" style="edgeStyle=orthogonalEdgeStyle;rounded=0;orthogonalLoop=1;jettySize=auto;html=1;entryX=1;entryY=0.5;entryDx=0;entryDy=0;endArrow=none;endFill=0;" parent="1" source="RTwn7rUxL_76YXAE0_zD-25" target="RTwn7rUxL_76YXAE0_zD-9" edge="1">
          <mxGeometry relative="1" as="geometry">
            <Array as="points">
              <mxPoint x="569" y="830" />
            </Array>
          </mxGeometry>
        </mxCell>
        <mxCell id="RTwn7rUxL_76YXAE0_zD-25" value="aluga" style="rhombus;whiteSpace=wrap;html=1;" parent="1" vertex="1">
          <mxGeometry x="529" y="860" width="80" height="80" as="geometry" />
        </mxCell>
        <mxCell id="RTwn7rUxL_76YXAE0_zD-28" style="edgeStyle=orthogonalEdgeStyle;rounded=0;orthogonalLoop=1;jettySize=auto;html=1;exitX=0.5;exitY=0;exitDx=0;exitDy=0;entryX=0.25;entryY=1;entryDx=0;entryDy=0;endArrow=none;endFill=0;" parent="1" source="RTwn7rUxL_76YXAE0_zD-26" target="RTwn7rUxL_76YXAE0_zD-24" edge="1">
          <mxGeometry relative="1" as="geometry">
            <Array as="points">
              <mxPoint x="688" y="790" />
            </Array>
          </mxGeometry>
        </mxCell>
        <mxCell id="RTwn7rUxL_76YXAE0_zD-26" value="cpf" style="ellipse;whiteSpace=wrap;html=1;" parent="1" vertex="1">
          <mxGeometry x="650" y="850" width="76" height="50" as="geometry" />
        </mxCell>
        <mxCell id="RTwn7rUxL_76YXAE0_zD-29" style="edgeStyle=orthogonalEdgeStyle;rounded=0;orthogonalLoop=1;jettySize=auto;html=1;entryX=1;entryY=0.5;entryDx=0;entryDy=0;endArrow=none;endFill=0;" parent="1" source="RTwn7rUxL_76YXAE0_zD-27" target="RTwn7rUxL_76YXAE0_zD-24" edge="1">
          <mxGeometry relative="1" as="geometry">
            <Array as="points">
              <mxPoint x="760" y="790" />
              <mxPoint x="773" y="790" />
            </Array>
          </mxGeometry>
        </mxCell>
        <mxCell id="RTwn7rUxL_76YXAE0_zD-27" value="nome" style="ellipse;whiteSpace=wrap;html=1;" parent="1" vertex="1">
          <mxGeometry x="730" y="850" width="76" height="50" as="geometry" />
        </mxCell>
        <mxCell id="RTwn7rUxL_76YXAE0_zD-32" value="1" style="text;html=1;align=center;verticalAlign=middle;resizable=0;points=[];autosize=1;strokeColor=none;fillColor=none;" parent="1" vertex="1">
          <mxGeometry x="126" y="800" width="30" height="30" as="geometry" />
        </mxCell>
        <mxCell id="RTwn7rUxL_76YXAE0_zD-33" value="N" style="text;html=1;align=center;verticalAlign=middle;resizable=0;points=[];autosize=1;strokeColor=none;fillColor=none;" parent="1" vertex="1">
          <mxGeometry x="329" y="830" width="30" height="30" as="geometry" />
        </mxCell>
        <mxCell id="RTwn7rUxL_76YXAE0_zD-34" value="N" style="text;html=1;align=center;verticalAlign=middle;resizable=0;points=[];autosize=1;strokeColor=none;fillColor=none;" parent="1" vertex="1">
          <mxGeometry x="479" y="830" width="30" height="30" as="geometry" />
        </mxCell>
        <mxCell id="RTwn7rUxL_76YXAE0_zD-35" value="1" style="text;html=1;align=center;verticalAlign=middle;resizable=0;points=[];autosize=1;strokeColor=none;fillColor=none;" parent="1" vertex="1">
          <mxGeometry x="720" y="700" width="30" height="30" as="geometry" />
        </mxCell>
        <mxCell id="YasK0nrGq2vCX-96jS8V-7" value="" style="group" vertex="1" connectable="0" parent="1">
          <mxGeometry x="255" y="961" width="311" height="130" as="geometry" />
        </mxCell>
        <mxCell id="YasK0nrGq2vCX-96jS8V-1" value="marca" style="rounded=0;whiteSpace=wrap;html=1;" vertex="1" parent="YasK0nrGq2vCX-96jS8V-7">
          <mxGeometry width="120" height="60" as="geometry" />
        </mxCell>
        <mxCell id="YasK0nrGq2vCX-96jS8V-2" value="modelo" style="rounded=0;whiteSpace=wrap;html=1;" vertex="1" parent="YasK0nrGq2vCX-96jS8V-7">
          <mxGeometry x="191" width="120" height="60" as="geometry" />
        </mxCell>
        <mxCell id="YasK0nrGq2vCX-96jS8V-5" style="edgeStyle=orthogonalEdgeStyle;rounded=0;orthogonalLoop=1;jettySize=auto;html=1;exitX=0.5;exitY=0;exitDx=0;exitDy=0;entryX=0.5;entryY=1;entryDx=0;entryDy=0;endArrow=none;endFill=0;" edge="1" parent="YasK0nrGq2vCX-96jS8V-7" source="YasK0nrGq2vCX-96jS8V-3" target="YasK0nrGq2vCX-96jS8V-1">
          <mxGeometry relative="1" as="geometry" />
        </mxCell>
        <mxCell id="YasK0nrGq2vCX-96jS8V-3" value="nome marca" style="ellipse;whiteSpace=wrap;html=1;" vertex="1" parent="YasK0nrGq2vCX-96jS8V-7">
          <mxGeometry x="20" y="80" width="80" height="50" as="geometry" />
        </mxCell>
        <mxCell id="YasK0nrGq2vCX-96jS8V-6" style="edgeStyle=orthogonalEdgeStyle;rounded=0;orthogonalLoop=1;jettySize=auto;html=1;exitX=0.5;exitY=0;exitDx=0;exitDy=0;endArrow=none;endFill=0;" edge="1" parent="YasK0nrGq2vCX-96jS8V-7" source="YasK0nrGq2vCX-96jS8V-4">
          <mxGeometry relative="1" as="geometry">
            <mxPoint x="261" y="60" as="targetPoint" />
          </mxGeometry>
        </mxCell>
        <mxCell id="YasK0nrGq2vCX-96jS8V-4" value="nome modelo" style="ellipse;whiteSpace=wrap;html=1;" vertex="1" parent="YasK0nrGq2vCX-96jS8V-7">
          <mxGeometry x="221" y="80" width="80" height="50" as="geometry" />
        </mxCell>
        <mxCell id="YasK0nrGq2vCX-96jS8V-11" style="edgeStyle=orthogonalEdgeStyle;rounded=0;orthogonalLoop=1;jettySize=auto;html=1;exitX=0.5;exitY=0;exitDx=0;exitDy=0;entryX=0.5;entryY=1;entryDx=0;entryDy=0;endArrow=none;endFill=0;" edge="1" parent="1" source="YasK0nrGq2vCX-96jS8V-8" target="RTwn7rUxL_76YXAE0_zD-9">
          <mxGeometry relative="1" as="geometry" />
        </mxCell>
        <mxCell id="YasK0nrGq2vCX-96jS8V-8" value="possui" style="rhombus;whiteSpace=wrap;html=1;" vertex="1" parent="1">
          <mxGeometry x="390" y="880" width="61" height="60" as="geometry" />
        </mxCell>
        <mxCell id="YasK0nrGq2vCX-96jS8V-9" style="edgeStyle=orthogonalEdgeStyle;rounded=0;orthogonalLoop=1;jettySize=auto;html=1;exitX=0.5;exitY=0;exitDx=0;exitDy=0;entryX=0;entryY=0.5;entryDx=0;entryDy=0;endArrow=none;endFill=0;" edge="1" parent="1" source="YasK0nrGq2vCX-96jS8V-1" target="YasK0nrGq2vCX-96jS8V-8">
          <mxGeometry relative="1" as="geometry" />
        </mxCell>
        <mxCell id="YasK0nrGq2vCX-96jS8V-10" style="edgeStyle=orthogonalEdgeStyle;rounded=0;orthogonalLoop=1;jettySize=auto;html=1;exitX=0.5;exitY=0;exitDx=0;exitDy=0;entryX=1;entryY=0.5;entryDx=0;entryDy=0;endArrow=none;endFill=0;" edge="1" parent="1" source="YasK0nrGq2vCX-96jS8V-2" target="YasK0nrGq2vCX-96jS8V-8">
          <mxGeometry relative="1" as="geometry" />
        </mxCell>
      </root>
    </mxGraphModel>
  </diagram>
</mxfile>
